Coordinates
version=1
nRows=16
nColumns=40
inDegrees=yes

Units are S.I. units (second, meters, Newtons, ...)
If the header above contains a line with 'inDegrees', this indicates whether rotational values are in degrees (yes) or radians (no).

endheader
time	pelvis_tilt	pelvis_list	pelvis_rotation	pelvis_tx	pelvis_ty	pelvis_tz	hip_flexion_r	hip_adduction_r	hip_rotation_r	knee_angle_r	knee_angle_r_beta	ankle_angle_r	subtalar_angle_r	mtp_angle_r	hip_flexion_l	hip_adduction_l	hip_rotation_l	knee_angle_l	knee_angle_l_beta	ankle_angle_l	subtalar_angle_l	mtp_angle_l	lumbar_extension	lumbar_bending	lumbar_rotation	arm_flex_r	arm_add_r	arm_rot_r	elbow_flex_r	pro_sup_r	wrist_flex_r	wrist_dev_r	arm_flex_l	arm_add_l	arm_rot_l	elbow_flex_l	pro_sup_l	wrist_flex_l	wrist_dev_l
      3.86700000	      4.74690204	      2.35477045	      2.41060721	      0.06325891	      1.31882805	     -0.00322750	     57.22242226	     -0.50871650	      2.92130531	     85.69992358	      1.49574584	      0.65156078	    -16.19618509	      0.00000000	     29.66083020	     -5.94586670	    -11.37646474	     75.64959361	      1.32033449	     -3.70716787	    -12.46709427	      0.00000000	    -59.47624371	     -2.79238937	     -2.06112376	     57.33025824	     16.52596223	    -55.57707560	     33.12837497	     77.81642447	      0.00000000	      0.00000000	     58.36914264	     14.27052096	    -42.80084569	     32.99785198	      3.93876388	      0.00000000	      0.00000000
      3.88300000	      5.09715805	      2.43309366	      2.96302597	      0.06329974	      1.31957310	     -0.00390524	     54.77283524	     -1.11942918	      2.45147821	     81.99545090	      1.43109059	     -0.23423289	    -16.43117043	      0.00000000	     30.70607996	     -5.93703430	    -10.79564246	     79.10365613	      1.38061925	     -2.53264767	    -12.33061306	      0.00000000	    -59.81167475	     -2.41293088	     -2.37523108	     57.33769166	     16.51192213	    -55.81850732	     33.08531985	     77.97514031	      0.00000000	      0.00000000	     58.54087616	     14.20605814	    -42.73465512	     32.62965965	      3.57289605	      0.00000000	      0.00000000
      3.90000000	      5.30928243	      2.63801520	      3.43728720	      0.06331502	      1.32014806	     -0.00433818	     52.27109443	     -1.66635741	      2.05534699	     78.23852733	      1.36551990	     -0.68970742	    -17.07453659	      0.00000000	     31.98409894	     -5.89982882	    -10.32909148	     82.39225113	      1.43801606	     -1.95885133	    -11.75381849	      0.00000000	    -60.04305178	     -2.21562155	     -2.71494539	     57.27420245	     16.48957188	    -56.10512641	     33.17330332	     78.19409937	      0.00000000	      0.00000000	     58.55656003	     14.21835669	    -42.42040596	     32.52553116	      3.28304323	      0.00000000	      0.00000000
      3.91700000	      5.18548991	      3.36524356	      3.60372729	      0.06333067	      1.32025359	     -0.00453202	     50.00033670	     -2.31116544	      2.32733730	     74.42243529	      1.29891653	     -0.93461464	    -17.29679714	      0.00000000	     33.56262221	     -5.46491378	    -10.44788654	     85.44064230	      1.49122052	     -1.51258032	    -11.46528749	      0.00000000	    -59.98498052	     -2.62587783	     -3.38892424	     57.09553007	     16.44117802	    -56.12475703	     33.24929553	     77.96923220	      0.00000000	      0.00000000	     58.51758245	     14.25099905	    -42.34037857	     32.46188834	      3.80394354	      0.00000000	      0.00000000
      3.93300000	      5.36916831	      3.37429684	      4.24157769	      0.06329188	      1.32063861	     -0.00502528	     47.14177681	     -2.74894981	      1.43722591	     70.37639072	      1.22829973	     -1.84918680	    -18.72263040	      0.00000000	     35.15787766	     -5.51927957	     -9.68601443	     88.67270360	      1.54763063	     -0.72210724	    -10.69621384	      0.00000000	    -60.17767136	     -2.18417746	     -3.60898056	     57.09665946	     16.41296221	    -56.76163139	     33.41855301	     79.27828844	      0.00000000	      0.00000000	     58.54503633	     14.31946156	    -41.89039419	     32.34079706	      2.97429881	      0.00000000	      0.00000000
      3.95000000	      5.25742308	      3.87390634	      4.65094678	      0.06318946	      1.32065674	     -0.00549682	     44.64526383	     -3.44656290	      1.15783376	     66.53975978	      1.16133789	     -2.60116678	    -18.96444515	      0.00000000	     37.00023799	     -5.10842131	     -9.47667641	     91.61771634	      1.59903080	     -0.28009770	    -10.62094911	      0.00000000	    -60.12040570	     -2.25756367	     -4.19097134	     56.96102629	     16.30727406	    -56.82691756	     33.44353882	     79.04239064	      0.00000000	      0.00000000	     58.55779735	     14.42565977	    -41.86119595	     32.26102989	      3.30838731	      0.00000000	      0.00000000
      3.96700000	      5.14442958	      4.22917427	      5.12277135	      0.06304314	      1.32065734	     -0.00593221	     42.06939903	     -4.08921628	      0.54064910	     62.78896964	      1.09587425	     -3.41881843	    -19.35913609	      0.00000000	     38.99041960	     -4.75865891	     -9.13702831	     94.47782365	      1.64894909	     -0.14230809	    -10.58381206	      0.00000000	    -60.05071235	     -2.19090365	     -4.67465267	     56.84109903	     16.20204039	    -56.90703161	     33.47550405	     78.91569269	      0.00000000	      0.00000000	     58.53663785	     14.55048001	    -41.76066574	     32.21455307	      3.34323670	      0.00000000	      0.00000000
      3.98300000	      4.97724794	      4.60484580	      5.57297339	      0.06285531	      1.32054506	     -0.00629702	     39.51991190	     -4.74831122	     -0.15578377	     59.16708780	      1.03266049	     -4.33301563	    -19.57478326	      0.00000000	     41.11330785	     -4.36718468	     -8.86870134	     97.19902688	      1.69644305	     -0.07763342	    -10.70062829	      0.00000000	    -59.92738682	     -2.16055920	     -5.16668786	     56.70069043	     16.10151020	    -56.94164799	     33.49466033	     78.83902950	      0.00000000	      0.00000000	     58.52540804	     14.69005522	    -41.66193793	     32.16442540	      3.32833143	      0.00000000	      0.00000000
      4.00000000	      4.78514109	      4.90088486	      6.09159814	      0.06263701	      1.32034685	     -0.00669301	     37.10485897	     -5.34554844	     -0.91460820	     55.88053381	      0.97529930	     -5.22521972	    -19.59734648	      0.00000000	     43.30883616	     -3.93273233	     -8.56049930	     99.64994148	      1.73921958	     -0.09654973	    -11.07521863	      0.00000000	    -59.76766392	     -2.04928137	     -5.63264876	     56.55421557	     15.98330823	    -56.94897282	     33.49646601	     78.79022363	      0.00000000	      0.00000000	     58.50129630	     14.80885384	    -41.52978921	     32.11189919	      3.27066145	      0.00000000	      0.00000000
      4.01700000	      4.56708113	      5.15809033	      6.62362087	      0.06235566	      1.32007702	     -0.00711545	     34.86795870	     -5.89616639	     -1.54112265	     53.01156054	      0.92522627	     -6.20394188	    -19.15670242	      0.00000000	     45.53980454	     -3.44588079	     -8.31829869	    101.79245301	      1.77661346	     -0.14668102	    -11.79455114	      0.00000000	    -59.57117510	     -1.91201650	     -6.09367584	     56.39481930	     15.86188454	    -56.90119315	     33.48846401	     78.75269699	      0.00000000	      0.00000000	     58.45632779	     14.91428267	    -41.41840753	     32.09414221	      3.25689495	      0.00000000	      0.00000000
      4.03300000	      4.35893376	      5.28654377	      7.26950970	      0.06198913	      1.31976201	     -0.00773898	     32.72113018	     -6.41972066	     -2.37590434	     50.50969473	      0.88156048	     -7.12397403	    -18.45104073	      0.00000000	     47.84360058	     -2.87894560	     -7.97332097	    103.68481922	      1.80964148	     -0.32130283	    -12.95270275	      0.00000000	    -59.36187785	     -1.60057661	     -6.51557703	     56.24742559	     15.72877391	    -56.77532514	     33.47336234	     78.72949777	      0.00000000	      0.00000000	     58.39217572	     15.02001318	    -41.29770558	     32.08294220	      3.21439206	      0.00000000	      0.00000000
      4.05000000	      4.06833212	      5.72144518	      7.43470165	      0.06180947	      1.31926474	     -0.00759831	     30.94700619	     -6.80942605	     -2.33657079	     48.54633035	      0.84729330	     -7.54050798	    -18.14239901	      0.00000000	     49.99955905	     -2.48141269	     -8.17420677	    105.14517823	      1.83512955	     -0.10095658	    -13.27530699	      0.00000000	    -59.10581155	     -1.91689340	     -6.94166019	     56.06376718	     15.61897538	    -56.77921962	     33.47471951	     78.61916218	      0.00000000	      0.00000000	     58.37388026	     15.09666703	    -41.25639201	     32.04666007	      3.44526617	      0.00000000	      0.00000000
      4.06700000	      3.89708009	      5.54031715	      8.26341196	      0.06140069	      1.31898000	     -0.00865139	     29.21323419	     -7.10612701	     -3.39246257	     46.94786351	      0.81939479	     -8.99378489	    -17.17225567	      0.00000000	     52.26329303	     -1.83929142	     -7.58169770	    106.43352879	      1.85761551	      0.49307789	    -14.87033792	      0.00000000	    -58.89835483	     -1.21853195	     -7.20404001	     55.99495569	     15.48921517	    -56.64107361	     33.44497086	     78.52030336	      0.00000000	      0.00000000	     58.35660613	     15.15845059	    -41.11759877	     31.99668140	      3.42473389	      0.00000000	      0.00000000
      4.08300000	      3.72493344	      5.55892249	      9.00118364	      0.06114825	      1.31874094	     -0.00943443	     27.62271601	     -7.42513966	     -4.14352522	     45.83093538	      0.79990072	     -9.51591214	    -16.66403965	      0.00000000	     54.41386282	     -1.10966137	     -7.21134078	    107.28746944	      1.87251959	      0.84335162	    -16.19760444	      0.00000000	    -58.72709838	     -0.75607034	     -7.58942403	     55.88361199	     15.38103077	    -56.56090119	     33.44059414	     78.47648619	      0.00000000	      0.00000000	     58.36471098	     15.18386865	    -40.79201480	     31.94394332	      3.15930667	      0.00000000	      0.00000000
      4.10000000	      3.57427433	      5.62278821	      9.22276318	      0.06103375	      1.31837233	     -0.00990933	     26.39799618	     -7.53878472	     -4.30994027	     45.23854617	      0.78956158	    -10.28913434	    -16.23256808	      0.00000000	     56.30368526	     -0.75686327	     -7.15580890	    107.83675333	      1.88210640	      1.79430447	    -16.82671129	      0.00000000	    -58.56646803	     -0.66797552	     -7.73748676	     55.83412929	     15.29159295	    -56.54026032	     33.43712675	     78.31069411	      0.00000000	      0.00000000	     58.36597524	     15.24359908	    -40.73191550	     31.85809843	      3.32047922	      0.00000000	      0.00000000
      4.11700000	      3.41991395	      5.61111453	      9.58221125	      0.06091577	      1.31812603	     -0.01029957	     25.27134044	     -7.59520690	     -4.64952944	     44.87692704	      0.78325014	    -10.75734456	    -15.96913923	      0.00000000	     58.12110503	     -0.36767027	     -6.96272729	    107.99348235	      1.88484184	      2.33501707	    -17.61066480	      0.00000000	    -58.44140331	     -0.44506235	     -7.92427365	     55.83875845	     15.21949206	    -56.51256331	     33.41764653	     77.86533857	      0.00000000	      0.00000000	     58.34280324	     15.30777014	    -40.47099171	     31.90189243	      2.97912259	      0.00000000	      0.00000000
